<svg width="3623" height="1009" viewBox="0 0 3623 1009" fill="none" xmlns="http://www.w3.org/2000/svg">
<path d="M239.3 182C326.567 182 397.5 203.933 452.1 247.8L386.3 352.8C364.367 337.4 341.267 325.033 317 315.7C293.2 306.367 267.3 301.7 239.3 301.7C221.1 301.7 208.267 303.8 200.8 308C193.8 311.733 190.3 316.867 190.3 323.4C190.3 329 194.5 333.2 202.9 336C211.767 338.8 222.733 341.833 235.8 345.1L299.5 359.8C346.633 370.533 382.1 386.4 405.9 407.4C430.167 428.4 442.3 457.567 442.3 494.9C442.3 532.233 433.2 563.033 415 587.3C396.8 611.1 372.067 628.833 340.8 640.5C310 652.167 275 658 235.8 658C206.4 658 177 655.433 147.6 650.3C118.2 644.7 90.9 636.767 65.7 626.5C40.5 615.767 18.8 602.933 0.6 588L65 480.9C78.5333 491.633 94.8667 501.433 114 510.3C133.133 518.7 152.967 525.467 173.5 530.6C194.033 535.733 213.167 538.3 230.9 538.3C247.7 538.3 259.133 536.433 265.2 532.7C271.733 528.5 275 523.367 275 517.3C275 510.767 272.2 505.867 266.6 502.6C261.467 499.333 251.9 496.067 237.9 492.8L167.9 477.4C143.167 471.8 119.6 464.333 97.2 455C74.8 445.667 56.6 432.133 42.6 414.4C28.6 396.2 21.6 371.7 21.6 340.9C21.6 309.167 30 281.4 46.8 257.6C64.0667 233.8 88.8 215.367 121 202.3C153.667 188.767 193.1 182 239.3 182ZM670.106 658C606.64 658 557.406 642.133 522.406 610.4C487.406 578.667 469.906 533.867 469.906 476C469.906 437.267 477.84 404.367 493.706 377.3C510.04 350.233 532.673 329.7 561.606 315.7C591.006 301.233 625.073 294 663.806 294C703.473 294 737.073 301.233 764.606 315.7C792.606 329.7 813.84 349.533 828.306 375.2C842.773 400.867 850.006 430.733 850.006 464.8C850.006 472.267 849.54 479.967 848.606 487.9C848.14 495.833 847.44 502.133 846.506 506.8H623.906C626.24 525 631.373 536.9 639.306 542.5C647.24 548.1 658.206 550.9 672.206 550.9C695.073 550.9 709.073 540.867 714.206 520.8L843.706 555.8C838.573 578.667 827.14 597.8 809.406 613.2C791.673 628.133 770.44 639.333 745.706 646.8C721.44 654.267 696.24 658 670.106 658ZM664.506 400.4C652.373 400.4 643.04 403.9 636.506 410.9C630.44 417.433 626.24 429.567 623.906 447.3H699.506C698.106 431.9 694.84 420.233 689.706 412.3C684.573 404.367 676.173 400.4 664.506 400.4ZM1071.26 294C1110.46 294 1144.53 301.233 1173.46 315.7C1202.86 329.7 1225.73 350.233 1242.06 377.3C1258.39 404.367 1266.56 437.267 1266.56 476C1266.56 514.267 1258.39 547.167 1242.06 574.7C1225.73 601.767 1202.86 622.533 1173.46 637C1144.53 651 1110.46 658 1071.26 658C1032.53 658 998.461 651 969.061 637C939.661 622.533 916.794 601.767 900.461 574.7C884.128 547.167 875.961 514.267 875.961 476C875.961 437.267 884.128 404.367 900.461 377.3C916.794 350.233 939.661 329.7 969.061 315.7C998.461 301.233 1032.53 294 1071.26 294ZM1071.26 402.5C1060.53 402.5 1052.13 407.4 1046.06 417.2C1040.46 427 1037.66 446.6 1037.66 476C1037.66 505.4 1040.46 525 1046.06 534.8C1052.13 544.6 1060.53 549.5 1071.26 549.5C1081.99 549.5 1090.16 544.6 1095.76 534.8C1101.83 525 1104.86 505.4 1104.86 476C1104.86 446.6 1101.83 427 1095.76 417.2C1090.16 407.4 1081.99 402.5 1071.26 402.5ZM1420.32 658C1383.92 658 1355.92 648.667 1336.32 630C1316.72 610.867 1306.92 580.067 1306.92 537.6V301H1467.92V500.5C1467.92 514.033 1470.02 523.833 1474.22 529.9C1478.89 535.967 1485.65 539 1494.52 539C1515.52 539 1526.02 521.5 1526.02 486.5V301H1687.02V651H1542.12L1538.62 576.8C1518.09 630.933 1478.65 658 1420.32 658ZM1902.7 161V511.7C1902.7 525.7 1904.8 535.967 1909 542.5C1913.2 549.033 1920.67 552.3 1931.4 552.3C1936.54 552.3 1940.97 552.067 1944.7 551.6C1948.9 550.667 1952.87 549.733 1956.6 548.8L1949.6 635.6C1940.74 642.133 1927.9 647.5 1911.1 651.7C1894.77 655.9 1878.67 658 1862.8 658C1819.4 658 1788.37 648.667 1769.7 630C1751.04 611.333 1741.7 580.067 1741.7 536.2V161H1902.7ZM2247.92 301V409.5H2159.72V508.2C2159.72 524.067 2162.99 535.5 2169.52 542.5C2176.52 549.033 2187.26 552.3 2201.72 552.3C2218.99 552.3 2233.69 549.267 2245.82 543.2L2252.82 634.2C2241.16 641.667 2225.29 647.5 2205.22 651.7C2185.16 655.9 2166.26 658 2148.52 658C2099.52 658 2062.19 648.667 2036.52 630C2011.32 610.867 1998.72 578.667 1998.72 533.4V409.5H1944.82V301H1998.72V226.8L2159.72 182V301H2247.92ZM2397.18 658C2360.78 658 2332.78 648.667 2313.18 630C2293.58 610.867 2283.78 580.067 2283.78 537.6V301H2444.78V500.5C2444.78 514.033 2446.88 523.833 2451.08 529.9C2455.74 535.967 2462.51 539 2471.38 539C2492.38 539 2502.88 521.5 2502.88 486.5V301H2663.88V651H2518.98L2515.48 576.8C2494.94 630.933 2455.51 658 2397.18 658ZM2718.56 651V301H2863.46L2866.96 388.5C2874.89 359.567 2887.02 336.7 2903.36 319.9C2920.16 302.633 2942.32 294 2969.86 294C2980.59 294 2988.76 294.933 2994.36 296.8C2999.96 298.667 3003.92 300.533 3006.26 302.4L2992.96 431.9C2988.76 430.033 2982.69 428.4 2974.76 427C2966.82 425.6 2958.19 424.9 2948.86 424.9C2927.86 424.9 2911.06 429.8 2898.46 439.6C2885.86 449.4 2879.56 463.867 2879.56 483V651H2718.56ZM3216.49 658C3153.03 658 3103.79 642.133 3068.79 610.4C3033.79 578.667 3016.29 533.867 3016.29 476C3016.29 437.267 3024.23 404.367 3040.09 377.3C3056.43 350.233 3079.06 329.7 3107.99 315.7C3137.39 301.233 3171.46 294 3210.19 294C3249.86 294 3283.46 301.233 3310.99 315.7C3338.99 329.7 3360.23 349.533 3374.69 375.2C3389.16 400.867 3396.39 430.733 3396.39 464.8C3396.39 472.267 3395.93 479.967 3394.99 487.9C3394.53 495.833 3393.83 502.133 3392.89 506.8H3170.29C3172.63 525 3177.76 536.9 3185.69 542.5C3193.63 548.1 3204.59 550.9 3218.59 550.9C3241.46 550.9 3255.46 540.867 3260.59 520.8L3390.09 555.8C3384.96 578.667 3373.53 597.8 3355.79 613.2C3338.06 628.133 3316.83 639.333 3292.09 646.8C3267.83 654.267 3242.63 658 3216.49 658ZM3210.89 400.4C3198.76 400.4 3189.43 403.9 3182.89 410.9C3176.83 417.433 3172.63 429.567 3170.29 447.3H3245.89C3244.49 431.9 3241.23 420.233 3236.09 412.3C3230.96 404.367 3222.56 400.4 3210.89 400.4ZM3515.45 506.8C3542.98 506.8 3564.21 513.333 3579.15 526.4C3594.08 539.467 3601.55 557.9 3601.55 581.7C3601.55 605.5 3594.08 623.933 3579.15 637C3564.21 650.067 3542.98 656.6 3515.45 656.6C3488.38 656.6 3467.15 650.067 3451.75 637C3436.81 623.933 3429.35 605.5 3429.35 581.7C3429.35 557.9 3436.81 539.467 3451.75 526.4C3467.15 513.333 3488.38 506.8 3515.45 506.8Z" fill="black"/>
<path d="M2557 931V719.8H2677.96C2704.63 720.013 2724.47 724.813 2737.48 734.2C2750.49 743.373 2757 757.347 2757 776.12C2757 788.707 2753.16 799.373 2745.48 808.12C2737.8 816.867 2725.75 822.413 2709.32 824.76V825.08C2727.67 827 2741.11 832.44 2749.64 841.4C2758.17 850.36 2762.44 861.667 2762.44 875.32C2762.44 893.88 2756.15 907.853 2743.56 917.24C2731.19 926.413 2712.09 931 2686.28 931H2557ZM2628.36 801.72H2661.64C2674.44 801.72 2680.84 796.6 2680.84 786.36C2680.84 776.12 2674.44 771 2661.64 771H2628.36V801.72ZM2628.36 882.36H2666.44C2679.67 882.36 2686.28 877.133 2686.28 866.68C2686.28 856.653 2679.67 851.64 2666.44 851.64H2628.36V882.36ZM2856.87 876.28H2952.55V931H2782.31V719.8H2856.87V876.28ZM3070.61 716.6C3104.32 716.6 3130.56 726.093 3149.33 745.08C3168.32 764.067 3177.81 790.84 3177.81 825.4C3177.81 859.96 3168.32 886.733 3149.33 905.72C3130.56 924.707 3104.32 934.2 3070.61 934.2C3048.43 934.2 3029.23 929.933 3013.01 921.4C2997.01 912.867 2984.64 900.493 2975.89 884.28C2967.36 868.067 2963.09 848.44 2963.09 825.4C2963.09 802.36 2967.36 782.733 2975.89 766.52C2984.64 750.307 2997.01 737.933 3013.01 729.4C3029.23 720.867 3048.43 716.6 3070.61 716.6ZM3070.61 772.6C3059.73 772.6 3051.73 776.867 3046.61 785.4C3041.71 793.72 3039.25 807.053 3039.25 825.4C3039.25 843.747 3041.71 857.187 3046.61 865.72C3051.73 874.04 3059.73 878.2 3070.61 878.2C3081.49 878.2 3089.39 874.04 3094.29 865.72C3099.2 857.187 3101.65 843.747 3101.65 825.4C3101.65 807.053 3099.2 793.72 3094.29 785.4C3089.39 776.867 3081.49 772.6 3070.61 772.6ZM3291.9 934.2C3273.76 934.2 3257.44 930.253 3242.94 922.36C3228.43 914.253 3217.02 902.2 3208.7 886.2C3200.38 869.987 3196.22 849.933 3196.22 826.04C3196.22 791.48 3205.82 764.6 3225.02 745.4C3244.43 726.2 3271.31 716.6 3305.66 716.6C3331.68 716.6 3352.48 721.187 3368.06 730.36C3383.84 739.533 3395.9 754.253 3404.22 774.52L3334.78 799.48C3333.28 789.453 3329.98 782.52 3324.86 778.68C3319.95 774.627 3313.76 772.6 3306.3 772.6C3294.14 772.6 3285.39 776.973 3280.06 785.72C3274.94 794.253 3272.38 807.48 3272.38 825.4C3272.38 845.453 3275.58 859.64 3281.98 867.96C3288.38 876.067 3298.4 880.12 3312.06 880.12C3320.59 880.12 3327.52 878.307 3332.86 874.68C3338.4 871.053 3341.18 865.507 3341.18 858.04V857.72H3305.66V811.96H3403.58V931H3354.3L3351.74 906.36C3340 924.92 3320.06 934.2 3291.9 934.2Z" fill="#FF5959"/>
</svg>
